<?xml version="1.0" encoding="utf-8"?>
<!-- Generator: Adobe Illustrator 25.0.0, SVG Export Plug-In . SVG Version: 6.00 Build 0)  -->
<svg version="1.1" id="Слой_1" xmlns="http://www.w3.org/2000/svg" xmlns:xlink="http://www.w3.org/1999/xlink" x="0px" y="0px"
	 viewBox="0 0 360 360" style="enable-background:new 0 0 360 360;" xml:space="preserve">
<style type="text/css">
	.st0{fill:#FFFFFF;}
	.st1{display:none;fill:#FFFFFF;}
	.st2{fill:none;}
</style>
<g>
	<path class="st0" d="M166,0c9.3,0,18.7,0,28,0c6,1,12,1.9,18.1,2.9c70.4,11.7,130.3,69.8,144,139.6c1.5,7.8,2.7,15.6,4,23.5
		c0,9.3,0,18.7,0,28c-1,6-1.9,12-2.9,18.1c-11.7,70.4-69.8,130.3-139.6,144c-7.8,1.5-15.6,2.7-23.5,4c-9.3,0-18.7,0-28,0
		c-6-1-12-1.9-18.1-2.9C77.5,345.4,17.6,287.3,4,217.5c-1.5-7.8-2.7-15.6-4-23.5c0-9.3,0-18.7,0-28c0.6-3.7,1.3-7.4,1.8-11.2
		C11.6,81.1,69.1,19.1,142,4.1C150,2.4,158,1.3,166,0z M270.9,243.8c-29.8-52.2-59.4-103.9-89.2-156.2
		c-29.9,52.3-59.4,104-89.2,156.2C152.4,243.8,211.3,243.8,270.9,243.8z"/>
	<path class="st1" d="M360,166c-1.3-7.8-2.5-15.7-4-23.5C342.4,72.7,282.5,14.6,212,2.9c-6-1-12-1.9-18-2.9c55.3,0,110.7,0,166,0
		C360,55.3,360,110.7,360,166z"/>
	<path class="st1" d="M0,194c1.3,7.8,2.5,15.7,4,23.5c13.6,69.9,73.5,127.9,144,139.6c6,1,12,1.9,18.1,2.9c-55.3,0-110.5,0-166,0
		C0,304.7,0,249.3,0,194z"/>
	<path class="st1" d="M194,360c7.8-1.3,15.7-2.5,23.5-4c69.8-13.6,127.9-73.5,139.6-144c1-6,1.9-12,2.9-18.1c0,55.3,0,110.5,0,166
		C304.7,360,249.3,360,194,360z"/>
	<path class="st1" d="M166,0c-8,1.3-16,2.4-24,4.1c-72.9,15-130.5,77-140.2,150.8c-0.5,3.7-1.2,7.4-1.8,11.2C0,110.7,0,55.5,0,0
		C55.3,0,110.7,0,166,0z"/>
	<path class="st2" d="M270.9,243.8c-59.7,0-118.6,0-178.4,0c29.8-52.1,59.3-103.8,89.2-156.2C211.5,139.9,241.1,191.6,270.9,243.8z"
		/>
</g>
</svg>
